<svg id="visual" viewBox="0 0 540 960" width="540" height="960" xmlns="http://www.w3.org/2000/svg" xmlns:xlink="http://www.w3.org/1999/xlink" version="1.1"><rect x="0" y="0" width="540" height="960" fill="#091421"></rect><g fill="#fff"><circle r="14" cx="175" cy="926"></circle><circle r="1" cx="304" cy="795"></circle><circle r="3" cx="458" cy="412"></circle><circle r="7" cx="164" cy="580"></circle><circle r="7" cx="277" cy="894"></circle><circle r="12" cx="305" cy="661"></circle><circle r="5" cx="112" cy="95"></circle><circle r="10" cx="451" cy="814"></circle><circle r="9" cx="230" cy="456"></circle><circle r="4" cx="17" cy="52"></circle><circle r="5" cx="44" cy="791"></circle><circle r="9" cx="490" cy="623"></circle><circle r="5" cx="21" cy="546"></circle><circle r="10" cx="196" cy="709"></circle><circle r="4" cx="394" cy="288"></circle><circle r="11" cx="144" cy="49"></circle><circle r="6" cx="283" cy="748"></circle><circle r="4" cx="72" cy="758"></circle><circle r="7" cx="203" cy="367"></circle></g></svg>